# xmcd
#
# Track frame offsets: 
#        180
#        21344
#        41099
#        60044
#        81633
#        103144
#        121067
#        147268
#        166109
#        184674
#        204922
#        220592
#        236926
#        279052
#        299500
#        304472
#
# Disc length: 4255 seconds
#
# Revision: 0
# Processed by: cddbd v1.5.2PL0 Copyright (c) Steve Scherf et al.
# Submitted via: ExactAudioCopy v0.99pb4
#
DISCID=e5109d10
DTITLE=Ko Jun Hyung (고준형) - Movie Story
DYEAR=1994
DGENRE=Ballad
TTITLE0=잠 못 드는 밤
TTITLE1=실연
TTITLE2=Movie Story
TTITLE3=원치않은 이별
TTITLE4=기억하는지
TTITLE5=애원
TTITLE6=그림같은 추억
TTITLE7=할례
TTITLE8=세기말의 풍경
TTITLE9=추억이야기
TTITLE10=나는
TTITLE11=누가 뭐래도
TTITLE12=Human
TTITLE13=잠 못 드는 밤 (Pop version.)
TTITLE14=And Goodbye
TTITLE15=Booking Man (Bouns Track)
EXTD=
EXTT0=
EXTT1=
EXTT2=
EXTT3=
EXTT4=
EXTT5=
EXTT6=
EXTT7=
EXTT8=
EXTT9=
EXTT10=
EXTT11=
EXTT12=
EXTT13=
EXTT14=
EXTT15=
PLAYORDER=
